<?xml version="1.0" encoding="utf-8"?>
<!-- Generator: Adobe Illustrator 21.0.0, SVG Export Plug-In . SVG Version: 6.00 Build 0)  -->
<svg version="1.1" id="Layer_1" xmlns="http://www.w3.org/2000/svg" xmlns:xlink="http://www.w3.org/1999/xlink" x="0px" y="0px"
	 width="1519.5px" height="882.5px" viewBox="0 0 1519.5 882.5" style="enable-background:new 0 0 1519.5 882.5;"
	 xml:space="preserve">
<style type="text/css">
	.st0{fill:#D61520;}
	.st1{fill:#FFFFFF;}
</style>
<title>swanger-logo</title>
<g>
	<path class="st0" d="M1519.5,313.6c0,0-47-146.4-236.1-156s-325.9-5.5-325.9-5.5c-2.2,0.1-9-7-10.8-8.3
		c-10.1-7.4-20.6-14.3-31.3-20.8c-35.4-21.5-73.5-38.2-113.3-49.6c-51.9-14.7-106.5-18-160.3-15.9c-50.9,2-101.6,3.3-152.1,10.5
		c-29.5,4.1-58.7,10-87.4,17.7c-14.5,3.9-28.9,8.3-43,13.2c-6.9,2.4-13.8,4.9-20.6,7.6c-4.5,1.7-16,9.1-20.5,8.3
		c42.8,6.9,95.3,16.6,120.1,41.4c82.9,9.7,234.8,19.3,345.2,27.6s473.6,2.8,541.3,20.7S1444.9,229.4,1519.5,313.6z"/>
	<path class="st0" d="M1072.1,134.1c0,0-212.7-120.1-331.4-131.2S456.2,13.9,380.3,36s-189.2,73.2-189.2,73.2s-58,31.8-107.7,6.9
		c0,0,24.9,26.2,53.9,24.9c12.4-0.6,25.2-5.2,37-8.5c20.5-5.8,40.9-12.3,61.2-18.8c46.9-15.1,92.9-34.2,140.9-45.4
		C452.5,50.6,533.1,41.8,611,37c41.6-2.5,84.4-3.9,125.6,3.1C858.1,60.8,981,135.4,981,135.4L1072.1,134.1z"/>
	<path class="st1" d="M1032,263.9c0,0-113.2,55.2-262.4,58s-302.4-11-357.6-30.4S343.2,257,312.6,257h-31.8v-19.3
		c0,0,93.9,15.2,158.8-41.4c0,0,95.3,96.7,254.1,93.9S1032,263.9,1032,263.9z"/>
	<path class="st1" d="M496.3,348.1c0,0,179.5,49.7,370.1,41.4c87.8-3.8,178-9,262.7-34.4c39.4-11.8,70.2-35,105.3-56
		c16.4-9.9,38.1-19.7,56.3-25.9c19.2-6.5,39.7-8.9,59.9-8.6c41.2,0.6,76.8,22,104,51.8c0,0-37.3-58-103.6-71.8
		c-29.8-6.2-62.3,0.3-91.2,8.1c-39.3,10.7-75.6,28.1-114.1,40.6c-33.1,10.8-66.6,20.3-100.5,28.5c-55,13.4-111.2,23.9-167.9,26.3
		C744.8,353.7,496.3,348.1,496.3,348.1z"/>
	<path class="st1" d="M106.9,328.8c0,0,37.3-85.6-11-114.6s-78.7-16.6-95.3-98c0,0-5.5,62.1,18,95.3
		C41.9,244.6,76.5,201.8,106.9,328.8z"/>
	<path class="st1" d="M272.6,188c0,0-100.8,8.3-120.1,11s-51.1,11-70.4-20.7c-3.2-5.3-6.2-11.2-7.7-17.3c-1.1-4.4-1.1-18.7,7.6-15
		c2.1,0.9,3.5,2.8,4.9,4.5c11,13.4,28.7,23.1,46.3,22.3C163.5,171.4,290.5,181,272.6,188z"/>
	<path class="st1" d="M215.3,280.5c0,0-88.4,45.6-73.2,135.3c2.9,17.4,6.2,34.8,11,51.8c4,14.3,7.9,29.3,17.9,40.9
		c-8.5-6.6-14.7-16.9-21.1-25.5c-7.5-9.9-13.9-20.5-19.3-31.7c-16.4-34.3-19.1-73.4,2-106.4C151.7,315,183.7,295.1,215.3,280.5z"/>
	<path class="st1" d="M1337.2,377.1c13.8-34.5,142.2-5.5,142.2-5.5s-26.2-41.4-85.6-75.9s-111.9,20.7-111.9,20.7
		s-73.2,60.8-147.8,78.7s-465.4,13.8-515.1,11c-27.8-1.6-55.7-7.8-82.6-14.7c-24.1-6.2-48.2-12.6-71.6-21.2
		c-21.9-8-47.7-17.9-65.4-33.6c-35.1-31-77.2-55.2-126.1-48c-19.2,2.7-37.7,9-54.5,18.6c-16.8,9.8-32.5,22.4-41.9,39.7
		c-28,51.6-16.9,126,31.3,161.7c34.5,25.6,81.9,31.3,122.7,19.4c40.3-11.8,75.2-36.5,112.8-54.3c70.4-33.1,616.9-12.1,676.3-10.7
		c90.3,2.1,147,83.1,237.9,85.3c58,1.4,84.2-35.9,84.2-35.9s-62.1-12.4-96.7-27.6C1311,469.7,1323.4,411.7,1337.2,377.1z
		 M291.2,491.7c-41.6,0-75.3-33.7-75.3-75.3s33.7-75.3,75.3-75.3s75.3,33.7,75.3,75.3S332.8,491.7,291.2,491.7L291.2,491.7
		L291.2,491.7z M434.1,439.3v-35.9l62.1,23.5L434.1,439.3z M1261.3,443.4L1072.1,431c-4.1,0,189.2-29,189.2-29L1261.3,443.4
		L1261.3,443.4z"/>
</g>
<g>
	<path class="st0" d="M216.7,641.5c0,6.6-1.8,11.5-5.3,14.9c-3,3-7.1,4.5-12,4.5c-4,0-10.5-5.2-19.4-15.8c-4.3-5-8.6-7.5-13.2-7.5
		c-6.6,0-9.9,3-9.9,8.9s4.7,11.6,14.1,17.2c14.4,8.3,23.3,14.1,26.5,17.2c9.6,9.1,14.3,21.1,14.3,35.8c0,17.7-7.8,32.2-23.3,43.4
		c-13.4,10-29.7,15.4-46.5,15.3c-13.5,0-26.8-3.8-38.3-11.1c-13.2-8.1-19.8-17.8-19.8-29c0.1-3,0.6-6,1.5-8.9
		c2.2-7.2,4.1-12,5.5-14.3c2.6-4.6,6.1-7,10.6-7.3c5.9,0,11.5,7,16.9,20.8s12.3,20.8,20.7,20.8c3.7,0.1,7.3-1.2,10.2-3.5
		s4.6-5.9,4.4-9.7c0-4.9-4.3-10.6-12.7-17.2c-12.8-9.9-20.8-16.7-23.8-20.1c-8.4-9.2-13-21.2-12.9-33.6
		c-0.2-14.5,5.8-28.4,16.6-38.2c11-10.4,23.6-15.5,37.8-15.5c5.8,0,11.6,0.9,17.1,2.7c2.6,0.9,4.6,1.3,6,0.9
		c2.7-0.7,5.3-1.5,7.9-2.5c1.6-0.7,3.3-1.1,5-1.1c5.3,0,10.3,3.5,15.1,10.6C214.4,625.8,216.7,633.5,216.7,641.5z"/>
	<path class="st0" d="M459.8,625.4c-0.5,3-2.1,5.7-4.4,7.6c-2.2,2-4.8,3.4-7.7,4.3c-2.8,0.9-4.9,2.2-6.1,3.9
		c-0.6,0.7-1.7,2.7-3.3,6.2l-51.1,108.8c-2.6,5.3-6.1,10.1-10.5,14.1c-4.3,3.9-8.5,5.8-12.8,5.8c-7.8,0-13.3-7.6-16.6-22.8
		c-1.8-7.8-3.4-15.5-5.1-23.4c-2.6-9-4.7-15.6-6.3-19.7c-1.6-2.7-3-5.5-4.4-8.3c-2.5,3.2-4.7,6.5-6.8,9.9
		c-3.3,5.5-7.1,12.3-11.4,20.6c-4.5,9.7-8.9,19.4-13.4,29c-5.4,9.8-11.8,14.8-19,14.8c-4.3,0-7.7-2-10.4-6c-2.3-3.4-4-7.9-5.3-13.6
		l-24-106.4c-0.3-1.9-0.8-3.7-1.5-5.5c-0.9-1.8-2.3-3.3-4.2-4.2c-2.3-1.3-4.6-2.7-6.8-4.2c-2.4-1.4-3.8-4-3.7-6.8
		c0-5.8,2.6-10.3,7.9-13.3c6.3-3.8,16.7-5.6,31.3-5.6h7.5c9,0,15.4,0.7,19,1.9c6,2,9,6.2,9,12.4c0,4.1-1.8,7.8-5.4,11
		s-5.4,6.4-5.4,9.6c0,8.8,1.7,19.8,5.1,33.1c3,11.7,5.2,18,6.5,18.9c1.8,1,5.8-4.5,12.3-16.5s9.7-21.3,9.7-27.8
		c0-5.1-3.2-10.6-9.6-16.4c-3-2.8-4.6-6-4.6-9.5c0-6.5,4.6-11.1,13.6-13.8c6.4-1.9,15.2-2.8,26.1-2.8c10.4,0,18,0.7,23,1.9
		c8.1,2.2,12.2,6.3,12.2,12.4c0,4-3.2,8.5-9.7,13.6c-2.9,2.3-4.3,4.8-3.9,7.4c1.7,12,4.2,23.9,7.3,35.6c3.2,12.1,5.7,18.2,7.6,18.2
		c2.6,0.2,6.6-6,12.1-18.9c5.3-12.2,9.4-25,12.3-38c0.6-2.6-0.7-5.6-3.9-8.9s-4.8-6.3-4.8-8.9c0-5.2,3.7-9.1,11.3-11.6
		c5.6-1.8,12.7-2.7,21.2-2.7c7.5,0,13.5,0.7,17.8,2.2c6.4,2,9.7,5.6,9.7,10.5C460,624.1,459.8,624.7,459.8,625.4z"/>
	<path class="st0" d="M600.2,756.7c0,7.4-4.5,12.3-13.4,14.9c-5.4,1.6-14,2.3-25.8,2.3h-6.3c-2.2,0-4.4,0.2-6.5,0.6
		c-7.8,0-13.5-0.8-17.3-2.4c-5.2-2.2-7.8-6.2-7.8-12c0-3,2.3-6.2,6.8-9.5s6.8-6.3,6.8-8.9c0.1-2.4-1.2-4.7-3.3-5.8
		c-2.4-1.3-5.1-2-7.8-1.9h-28.9c-2.6,0-5,1-6.9,2.7s-3,4.2-3,6.7c0,2.2,2.1,4.3,6.1,6.4s6.1,5.5,6.1,10.3c0,5.9-4.4,10-13.1,12.2
		c-5.6,1.4-13.9,2.2-24.8,2.2c-8.2,0-14.3-0.8-18.4-2.3c-6.2-2.4-9.4-7.1-9.4-13.9c-0.1-3.6,1.9-7,5.1-8.7c5.2-3,7.9-4.7,8.1-5
		c3.4-3.9,9.3-12.9,17.5-27.1c9-15.5,17.2-30.9,24.3-46.1c8.7-18.2,14-32.3,16.1-42.2c1.7-8.2,4.3-14,7.9-17.1s9-4.8,16.2-4.8
		c10.8,0,19.4,4.2,26,12.8c5.1,6.7,8.9,16.5,11.6,29.4l17.5,81.1c0.6,3.1,1.5,6.2,2.5,9.2c0.6,2,1.5,3.8,2.8,5.4
		c3.3,1.6,5.6,2.7,7.1,3.5C598.8,750.1,600.2,752.9,600.2,756.7z M530.1,701.5c-0.2-7.1-1.6-14.1-4.1-20.8c-2.8-7.6-5-11.4-6.7-11.4
		c-1.9,0-5.6,6.5-11.1,19.5c-3,7.2-4.6,12.2-4.6,15.2c0,1,0.6,1.8,1.5,2.3c1.5,0.7,3.1,1,4.8,0.9h8.1c3,0.1,6.1-0.2,9-1
		C529,705.6,530.2,703.6,530.1,701.5z"/>
	<path class="st0" d="M789.3,625c-0.6,5.1-4,8.2-10.1,9.2s-10,6.8-11.4,17.4l-12.9,87.7c-1.5,9.8-3.7,17.7-6.9,23.4
		c-4.2,7.4-9.7,11.1-16.6,11.1c-5.1,0.1-10.1-1.9-13.7-5.5c-2.7-2.6-5.9-7.1-9.7-13.6l-36-61.6c-1.7-3-2.6-4.6-2.8-4.8
		c-1.1-1.5-2.8-2.3-4.6-2.3c-1.7,0-2.8,1.1-3.6,3.5c-0.9,3-1.4,6-1.7,9.1l-3.7,38.7c-0.5,4.7,2.6,9.6,9.4,14.6
		c3.4,2.6,5.1,5.5,5.1,8.5c0,5.9-4,9.8-12,11.6c-4.5,1-12.1,1.6-22.8,1.6c-10.5,0-18.2-1.6-23.1-4.9c-3.9-2.3-6.2-6.5-6.1-11.1
		c0-3.7,2.1-6.4,6.1-8.3c5-2.3,7.8-4.6,8.6-6.6c2-4.6,3.7-9.2,5.1-14c3.3-10.4,5.8-21,7.4-31.8c2.6-16.7,3.8-33.6,3.7-50.5
		c0-6.2-2.8-9.9-8.3-11.1s-8.3-5-8.3-11.4c0-7.3,6-12,18.2-14.1c5-0.9,10.1-1.4,15.2-1.4c13.9,0,22.8,1.1,26.6,3.3
		c2.2,1.3,5.9,6.2,10.9,14.7l33.9,56.5c0.6,1.1,1.3,2.1,2,3.1c1.1,1.7,2.8,2.9,4.8,3.3c1.9,0.3,3.5-3.4,4.9-11.5
		c1.4-8,2.1-16,2.2-24.1c0-6.3-0.3-10.7-1-13.1c-1.3-4.6-4-6.7-7.9-6.7c-2.4,0.1-4.6-1-5.9-3c-1.4-2.2-2.2-4.8-2.1-7.4
		c0.5-5.7,3.5-9.6,9.2-11.6c3.6-1.3,9.7-1.9,18-1.9h5.1c11.5,0,19.1,0.3,22.8,1.1c8.3,1.8,12.6,5.8,12.6,12
		C789.4,623.8,789.3,624.4,789.3,625z"/>
	<path class="st0" d="M953.4,680.8c0,25.8-6.9,47.4-20.7,65c-14.8,18.8-34,28.2-57.9,28.2h-75.9c-3.7,0-6.5-0.7-8.3-1.9
		c-2.5-1.8-3.7-5.1-3.7-9.9c-0.2-3.7,1.4-7.3,4.3-9.7c3.4-1.8,6.9-3.7,10.2-5.6c1.5-4.9,2.8-9.8,4.3-14.7
		c2.7-10.4,4.8-20.9,6.1-31.6c2.2-16.6,3.3-33.4,3.3-50.2c0-6.6-2.4-11.1-7.3-13.6s-7.3-6.2-7.3-11.1c0-5.1,2.1-8.9,6.2-11.3
		c4.2-2.4,9.6-3.5,16.1-3.5c3.5,0,8.1,0.1,13.8,0.5s9.5,0.5,11.2,0.5c6.3,0,11.7-0.1,16.2-0.3c15.5-0.9,23.9-1.4,25-1.4
		c19,0,34.1,5.4,45.2,16C947.1,638.2,953.4,656.4,953.4,680.8z M897.9,675.3c0-11.5-1.7-20.6-5-27.4c-3.6-7.4-8.8-11.1-15.7-11.1
		c-3.2,0-6.2,1.6-8.1,4.2c-2.2,2.7-3.4,6.2-3.3,9.7l-5.8,80.4c0,1,0,2-0.1,3c-0.1,0.9-0.1,1.9-0.1,2.8c-0.1,2.6,0.4,5.2,1.5,7.6
		c1,1.8,2.9,2.8,5.7,2.8c9.5,0,16.6-4.9,21.7-14.6C894.9,721.4,897.9,702.1,897.9,675.3L897.9,675.3z"/>
	<path class="st0" d="M1098.9,642.3c0,5.1-1,9.5-3.2,12.8c-2.3,3.8-6.4,6-10.8,5.8c-5,0-9-3.9-12.2-11.5s-10.3-11.5-21.3-11.5
		c-4-0.1-8,0.7-11.6,2.4c-3.2,1.6-5,4.5-5.3,8.4l-2,25.8c0,2.2,1.8,3.3,5.3,3.3s6.2-3.8,8.5-11.2s5.4-11.2,9.3-11.2
		c5.3,0,9.2,3.4,11.4,10.3c1.9,5.2,2.8,11.9,2.8,19.7c0,11.7-1.3,21.2-3.7,28.3c-3.3,9.6-8.7,14.4-16.4,14.4c-4.8,0-7.6-4-8.3-12
		s-3-12-7.1-12c-1.9,0-3.4,1.6-4.7,4.7c-1.3,3.2-1.9,6.7-1.9,10.2v20c0,3.1,0.7,5.1,2.2,6.2c1.5,1,4.8,1.6,9.8,1.6
		c13.5,0,23.3-5,29.3-15s11.3-15,16.1-15c3.6,0,6.5,1.7,8.7,5.1s3.2,7.6,3.2,12.7c0.1,9.1-2.1,18-6.6,25.9
		c-4.4,7.9-9.5,12.5-15.4,14.1c-1.1,0.2-2.2,0.3-3.3,0.3c-1.4,0-2.9-0.3-4.3-0.7c-2.5-0.8-5.2-1.3-7.8-1.5h-61.4
		c-3.4,0-6.7,0.3-10.1,0.8c-9.5,1.3-15.3,1.8-17.5,1.8c-4.7,0-8.3-0.8-10.8-2.5c-2.9-2-4.7-5.5-5.1-10.3c0-3.9,1.6-7.6,4.4-10.3
		c3.4-2.4,6.9-5,10.4-7.5c4.2-8.7,7.6-21.9,10.3-39.8c2.8-18.6,4.2-37.3,4.2-56.1c0.2-5-2.4-9.6-6.7-12.1c-4.4-2.7-6.7-6.5-6.7-11.2
		c-0.2-4.6,2-9,5.8-11.7c3.8-2.8,8.7-4.2,14.5-4.2c2.7,0,5.4,0.1,8.1,0.3c1.9,0.2,3,0.3,3.3,0.3h61.2c3.4-0.1,6.8-0.4,10.1-1.1
		c2.5-0.6,5-0.9,7.6-1.1c3.8,0,7.7,3.3,11.4,10C1097.2,625.2,1098.9,633.1,1098.9,642.3z"/>
	<path class="st0" d="M1264.8,757.2c0,5.8-3.4,10.3-10.4,13.2c-6.4,2.5-13.3,3.7-20.2,3.5c-10.9,0-19.4-3.1-25.4-9.3
		c-5.5-5.7-8.8-13.8-10.1-24.2l-3-24.1c-0.5-4.3-1.5-7.8-2.8-10c-1.9-3-4.8-4.5-8.6-4.5c-2.7,0-4.6,0.3-5.7,1
		c-1.1,0.6-1.7,1.8-1.7,3l-2.1,32.1c-0.1,4.4,2.2,8.5,6,10.6c4,2.6,6,5.5,6,8.5c0,7.1-5.1,11.9-15.4,14.4
		c-6.3,1.6-16.5,2.3-30.6,2.3c-8.8,0-16.4-1.1-23-3.5c-8.1-3-12.2-7.2-12.2-12.8c0.3-4.2,2.2-7.3,5.6-9.1c4.6-2.4,7.5-4.7,8.8-6.7
		c3.7-6.2,7.1-19.5,10.1-40c2.6-18.2,3.8-36.6,3.7-55c0-6.5-2.4-10.4-7.1-11.9s-7.1-4.2-7.1-8.5c0-5.6,2.4-9.7,7.3-12.3
		c5.2-2.7,11.1-4.1,17-4h72.8c10.7,0,19.5,3.2,26.5,9.7c7.7,7.1,11.4,17,11.4,29.6c0,8.7-2.3,16.1-6.9,22.1
		c-5.1,4.8-10.1,9.6-15,14.4c0,1.9,1.9,4.3,5.6,7.3s6.1,5.6,7.2,8.1c1.1,2.8,1.7,5.7,1.9,8.7c0.2,3.3,0.4,6,0.5,8.2l1.8,19.8
		c0.5,5.4,3,9,7.8,11.3S1264.8,754.1,1264.8,757.2z M1200.5,649.6c0-4.8-0.5-8.4-1.6-11c-1.4-3.5-4.9-5.7-8.6-5.5
		c-3.6,0-5.7,2.5-6.1,7.4l-3.3,32.4c-0.2,1.4,0.4,2.8,1.5,3.8c0.8,1,2,1.6,3.3,1.7c5.6,0,9.7-3.2,12.2-9.6
		C1199.6,664,1200.5,657.7,1200.5,649.6L1200.5,649.6z"/>
	<path class="st0" d="M1328.8,639c-1.8,12.7-8.2,26.2-19.2,40.8c-10.4,13.7-17.7,20-22,18.9c-2.5-0.5-4.7-1.9-6.1-4
		c-1.5-2.5-2.6-5.3-3.1-8.2c3.6-4.6,7.2-9.1,10.5-13.7s5.3-8.7,5.9-12c0.3-2-0.8-4.2-3.5-6.4c-6.4-5.4-9.7-11.6-9.7-18.7
		c0-1.3,0.1-2.6,0.2-3.9c0.5-6.7,3.4-13.1,8.1-17.9c4.5-4.8,10.7-7.5,17.3-7.4c7.7,0,13.3,2.5,17.2,7.5c3.4,4.6,5.1,10.6,5.1,18.1
		C1329.3,634.5,1329.1,636.8,1328.8,639z"/>
	<path class="st0" d="M1463.9,641.5c0,6.6-1.8,11.5-5.3,14.9c-3,3-7.1,4.5-12,4.5c-4,0-10.5-5.2-19.4-15.8c-4.3-5-8.6-7.5-13.2-7.5
		c-6.6,0-9.9,3-9.9,8.9s4.7,11.6,14.1,17.2c14.4,8.3,23.3,14.1,26.5,17.2c9.6,9.1,14.3,21.1,14.3,35.8c0,17.7-7.8,32.2-23.3,43.4
		c-13.4,10-29.7,15.4-46.5,15.3c-13.5,0-26.8-3.8-38.3-11.1c-13.2-8.1-19.8-17.8-19.8-29c0.1-3,0.6-6,1.5-8.9
		c2.2-7.2,4.1-12,5.5-14.3c2.6-4.6,6.1-7,10.6-7.3c5.9,0,11.5,7,16.9,20.8s12.3,20.8,20.7,20.8c3.7,0.1,7.3-1.2,10.2-3.5
		c2.9-2.3,4.6-5.9,4.4-9.7c0-4.9-4.3-10.6-12.7-17.2c-12.8-9.9-20.8-16.7-23.8-20.1c-8.4-9.2-13-21.2-12.9-33.6
		c-0.2-14.5,5.8-28.4,16.5-38.2c11-10.4,23.6-15.5,37.8-15.5c5.8,0,11.6,0.9,17.2,2.7c2.6,0.9,4.6,1.3,6,0.9
		c2.7-0.7,5.3-1.5,7.9-2.5c1.6-0.7,3.3-1.1,5-1.1c5.3,0,10.3,3.5,15.1,10.6C1461.6,625.7,1463.9,633.5,1463.9,641.5z"/>
</g>
<g>
	<path class="st1" d="M215.9,634.1c0,6.6-1.8,11.5-5.3,14.9c-3,3-7.1,4.5-12,4.5c-4,0-10.5-5.2-19.4-15.8c-4.3-5-8.6-7.5-13.2-7.5
		c-6.6,0-9.9,3-9.9,8.9s4.7,11.6,14.1,17.2c14.4,8.3,23.3,14.1,26.5,17.2c9.6,9.1,14.3,21.1,14.3,35.8c0,17.7-7.8,32.2-23.3,43.4
		c-13.4,10-29.7,15.4-46.5,15.3c-13.5,0-26.8-3.8-38.3-11.1c-13.2-8.1-19.8-17.8-19.8-29c0.1-3,0.6-6,1.5-8.9
		c2.2-7.2,4.1-12,5.5-14.3c2.6-4.6,6.1-7,10.6-7.3c5.9,0,11.5,7,16.9,20.8s12.3,20.8,20.7,20.8c3.7,0.1,7.3-1.2,10.2-3.5
		s4.6-5.9,4.4-9.7c0-4.9-4.3-10.6-12.7-17.2c-12.8-9.9-20.8-16.7-23.8-20.1c-8.4-9.2-13-21.2-12.9-33.6
		c-0.2-14.5,5.8-28.4,16.5-38.2c11-10.4,23.6-15.5,37.8-15.5c5.8,0,11.6,0.9,17.1,2.7c2.6,0.9,4.6,1.3,6,0.9
		c2.7-0.7,5.3-1.5,7.9-2.5c1.6-0.7,3.3-1.1,5-1.1c5.3,0,10.3,3.5,15.1,10.6C213.5,618.4,215.8,626.1,215.9,634.1z"/>
	<path class="st1" d="M458.9,618c-0.5,3-2.1,5.7-4.4,7.6c-2.2,2-4.8,3.4-7.7,4.3c-2.8,0.9-4.9,2.2-6.1,3.9c-0.6,0.7-1.7,2.7-3.3,6.2
		l-51.1,108.8c-2.6,5.3-6.1,10.1-10.5,14.1c-4.3,3.9-8.5,5.8-12.8,5.8c-7.8,0-13.3-7.6-16.6-22.8c-1.8-7.8-3.4-15.5-5.1-23.4
		c-2.6-9-4.7-15.6-6.3-19.7c-1.6-2.7-3-5.5-4.4-8.3c-2.5,3.2-4.7,6.5-6.8,9.9c-3.3,5.5-7.1,12.3-11.4,20.6
		c-4.5,9.7-8.9,19.4-13.4,29c-5.4,9.8-11.8,14.8-19,14.8c-4.3,0-7.7-2-10.4-6c-2.3-3.4-4-7.9-5.3-13.6l-24-106.4
		c-0.3-1.9-0.8-3.7-1.5-5.5c-0.9-1.8-2.3-3.3-4.2-4.2c-2.3-1.3-4.6-2.7-6.8-4.2c-2.4-1.4-3.8-4-3.7-6.8c0-5.8,2.6-10.3,7.9-13.3
		c6.3-3.8,16.7-5.6,31.3-5.6h7.5c9,0,15.4,0.7,19,1.9c6,2,9,6.2,9,12.4c0,4.1-1.8,7.8-5.4,11s-5.4,6.4-5.4,9.6
		c0,8.8,1.7,19.8,5.1,33.1c3,11.7,5.2,18,6.5,18.9c1.8,1,5.8-4.5,12.3-16.5s9.7-21.3,9.7-27.8c0-5.1-3.2-10.6-9.6-16.4
		c-3-2.8-4.6-6-4.6-9.5c0-6.5,4.6-11.1,13.6-13.8c6.4-1.9,15.2-2.8,26.1-2.8c10.4,0,18,0.7,23,1.9c8.1,2.2,12.2,6.3,12.2,12.4
		c0,4-3.2,8.5-9.7,13.6c-2.9,2.3-4.3,4.8-3.9,7.4c1.7,12,4.2,23.9,7.3,35.6c3.2,12.1,5.7,18.2,7.6,18.2c2.6,0.2,6.6-6,12.1-18.9
		c5.3-12.2,9.4-25,12.3-38c0.6-2.6-0.7-5.6-3.9-8.9s-4.8-6.3-4.8-8.9c0-5.2,3.7-9.1,11.3-11.6c5.6-1.8,12.7-2.7,21.2-2.7
		c7.5,0,13.5,0.7,17.8,2.2c6.4,2,9.7,5.6,9.7,10.5C459.1,616.7,459,617.3,458.9,618z"/>
	<path class="st1" d="M599.4,749.3c0,7.4-4.5,12.3-13.4,14.9c-5.4,1.6-14,2.3-25.8,2.3h-6.3c-2.2,0-4.4,0.2-6.5,0.6
		c-7.8,0-13.5-0.8-17.3-2.4c-5.2-2.2-7.8-6.2-7.8-12c0-3,2.3-6.2,6.8-9.5s6.8-6.3,6.8-8.9c0.1-2.4-1.2-4.7-3.3-5.8
		c-2.4-1.3-5.1-2-7.8-1.9h-28.9c-2.6,0-5,1-6.9,2.7s-3,4.2-3,6.7c0,2.2,2.1,4.3,6.1,6.4s6.1,5.5,6.1,10.3c0,5.9-4.4,10-13.1,12.2
		c-5.6,1.4-13.9,2.2-24.8,2.2c-8.2,0-14.3-0.8-18.4-2.3c-6.2-2.4-9.4-7.1-9.4-13.9c-0.1-3.6,1.9-7,5.1-8.7c5.2-3,7.9-4.7,8.1-5
		c3.4-3.9,9.3-12.9,17.5-27.1c9.1-15.5,17.2-30.9,24.3-46.1c8.7-18.2,14-32.3,16.1-42.2c1.7-8.2,4.3-14,7.9-17.1s9-4.8,16.2-4.8
		c10.8,0,19.4,4.2,26,12.8c5.1,6.7,8.9,16.5,11.6,29.4l17.5,81.1c0.6,3.1,1.5,6.2,2.5,9.2c0.6,2,1.5,3.8,2.8,5.4
		c3.3,1.6,5.6,2.7,7.1,3.5C598,742.7,599.4,745.5,599.4,749.3z M529.3,694.2c-0.2-7.1-1.6-14.1-4.2-20.8c-2.8-7.6-5-11.4-6.7-11.4
		c-1.9,0-5.6,6.5-11.1,19.5c-3,7.2-4.6,12.2-4.6,15.2c0,1,0.6,1.8,1.5,2.3c1.5,0.7,3.1,1,4.8,0.9h8.1c3,0.1,6.1-0.2,9-1
		C528.1,698.2,529.4,696.2,529.3,694.2z"/>
	<path class="st1" d="M788.4,617.6c-0.6,5.1-4,8.2-10.1,9.2s-10,6.8-11.4,17.4L754,732c-1.5,9.8-3.7,17.7-6.9,23.4
		c-4.2,7.4-9.7,11.1-16.6,11.1c-5.1,0.1-10-1.9-13.7-5.4c-2.7-2.6-5.9-7.1-9.7-13.6l-36-61.6c-1.7-3-2.6-4.6-2.8-4.8
		c-1.1-1.5-2.8-2.3-4.6-2.3c-1.7,0-2.8,1.1-3.6,3.5c-0.9,3-1.4,6-1.7,9.1l-3.7,38.7c-0.5,4.7,2.6,9.6,9.4,14.6
		c3.4,2.6,5.1,5.5,5.1,8.5c0,5.9-4,9.8-12,11.6c-4.5,1-12.1,1.6-22.8,1.6c-10.5,0-18.2-1.6-23.1-4.9c-3.9-2.3-6.2-6.5-6.1-11.1
		c0-3.7,2.1-6.4,6.1-8.3c5-2.3,7.8-4.6,8.6-6.6c2-4.6,3.7-9.2,5.1-14c3.3-10.4,5.8-21,7.4-31.8c2.6-16.7,3.8-33.6,3.7-50.5
		c0-6.2-2.8-9.9-8.3-11.1s-8.3-5-8.3-11.4c0-7.3,6-12,18.2-14.1c5-0.9,10.1-1.4,15.3-1.4c13.9,0,22.8,1.1,26.6,3.3
		c2.2,1.3,5.9,6.2,10.9,14.7l33.9,56.5c0.6,1.1,1.3,2.1,2,3.1c1.1,1.7,2.8,2.9,4.8,3.3c1.9,0.3,3.5-3.4,4.9-11.5
		c1.4-7.9,2.1-16,2.1-24.1c0-6.3-0.3-10.7-1-13.1c-1.3-4.6-4-6.7-7.9-6.7c-2.4,0.1-4.6-1-5.9-3c-1.4-2.2-2.2-4.8-2.1-7.4
		c0.5-5.7,3.5-9.6,9.2-11.6c3.6-1.3,9.7-1.9,18-1.9h5.1c11.5,0,19.1,0.3,22.8,1.1c8.3,1.8,12.6,5.8,12.6,12
		C788.6,616.5,788.4,617,788.4,617.6z"/>
	<path class="st1" d="M952.6,673.4c0,25.8-6.9,47.4-20.7,65c-14.8,18.8-34,28.2-57.9,28.2h-75.9c-3.7,0-6.5-0.7-8.3-1.9
		c-2.5-1.8-3.7-5.1-3.7-9.9c-0.2-3.7,1.4-7.3,4.3-9.7c3.4-1.8,6.9-3.7,10.2-5.6c1.5-4.9,2.8-9.8,4.3-14.7
		c2.7-10.4,4.8-20.9,6.1-31.6c2.2-16.6,3.2-33.4,3.2-50.1c0-6.6-2.4-11.1-7.3-13.6s-7.3-6.2-7.3-11.1c0-5.1,2.1-8.9,6.2-11.3
		c4.2-2.4,9.6-3.5,16.1-3.5c3.5,0,8.1,0.1,13.8,0.5s9.5,0.5,11.2,0.5c6.3,0,11.7-0.1,16.2-0.3c15.5-0.9,23.9-1.4,25-1.4
		c19,0,34.1,5.4,45.2,16C946.2,630.8,952.6,649,952.6,673.4z M897.1,667.9c0-11.5-1.7-20.6-5-27.4c-3.6-7.4-8.8-11.1-15.7-11.1
		c-3.2,0-6.2,1.6-8.1,4.2c-2.2,2.7-3.4,6.2-3.3,9.7l-5.8,80.4c0,1,0,2-0.1,3c-0.1,0.9-0.1,1.9-0.1,2.8c-0.1,2.6,0.4,5.2,1.5,7.6
		c1,1.8,2.9,2.8,5.7,2.8c9.5,0,16.6-4.9,21.7-14.6C894,714,897.1,694.7,897.1,667.9L897.1,667.9z"/>
	<path class="st1" d="M1098.1,634.9c0,5.1-1,9.5-3.2,12.8c-2.3,3.8-6.4,6-10.8,5.8c-5,0-9-3.9-12.2-11.5s-10.3-11.5-21.3-11.5
		c-4-0.1-8,0.7-11.6,2.4c-3.2,1.6-5,4.5-5.3,8.4l-2,25.8c0,2.2,1.8,3.3,5.3,3.3s6.2-3.8,8.5-11.2s5.4-11.2,9.3-11.2
		c5.3,0,9.2,3.4,11.4,10.3c1.9,5.2,2.8,11.9,2.8,19.7c0,11.7-1.3,21.2-3.7,28.3c-3.3,9.6-8.7,14.4-16.4,14.4c-4.8,0-7.6-4-8.3-12
		s-3-12-7.1-12c-1.9,0-3.4,1.6-4.7,4.7c-1.3,3.2-1.9,6.7-1.9,10.2v20.2c0,3.1,0.7,5.1,2.2,6.2c1.5,1,4.8,1.6,9.8,1.6
		c13.5,0,23.3-5,29.3-15s11.3-15,16.1-15c3.6,0,6.5,1.7,8.7,5.1s3.2,7.6,3.2,12.7c0.1,9.1-2.1,18-6.6,25.9
		c-4.4,7.9-9.5,12.5-15.4,14.1c-1.1,0.2-2.2,0.3-3.3,0.3c-1.4,0-2.9-0.3-4.3-0.7c-2.5-0.8-5.2-1.3-7.8-1.5h-61.4
		c-3.4,0-6.7,0.3-10.1,0.8c-9.5,1.3-15.3,1.8-17.5,1.8c-4.7,0-8.3-0.8-10.8-2.5c-2.9-2-4.7-5.5-5.1-10.3c0-3.9,1.6-7.6,4.4-10.3
		c3.4-2.4,6.9-5,10.4-7.5c4.2-8.7,7.6-21.9,10.3-39.8c2.8-18.6,4.2-37.3,4.2-56.1c0.2-5-2.4-9.6-6.7-12.1c-4.4-2.7-6.7-6.5-6.7-11.2
		c-0.1-4.6,2.1-9,5.8-11.6c3.8-2.8,8.7-4.2,14.5-4.2c2.7,0,5.4,0.1,8.1,0.3c1.9,0.2,3,0.3,3.3,0.3h61.2c3.4-0.1,6.8-0.4,10.1-1.1
		c2.5-0.6,5-0.9,7.6-1.1c3.8,0,7.7,3.3,11.4,10C1096.3,617.8,1098.1,625.7,1098.1,634.9z"/>
	<path class="st1" d="M1264,749.8c0,5.8-3.4,10.3-10.4,13.2c-6.4,2.5-13.3,3.7-20.2,3.5c-10.9,0-19.4-3.1-25.4-9.3
		c-5.5-5.7-8.8-13.8-10.1-24.2l-3-24c-0.5-4.3-1.5-7.8-2.8-10c-1.9-3-4.8-4.5-8.6-4.5c-2.7,0-4.6,0.3-5.7,1c-1.1,0.6-1.7,1.8-1.7,3
		l-2.1,32.2c-0.1,4.4,2.2,8.5,6,10.6c4,2.6,6,5.5,6,8.5c0,7.1-5.1,11.9-15.4,14.4c-6.3,1.6-16.5,2.3-30.6,2.3
		c-8.8,0-16.4-1.1-23-3.5c-8.1-3-12.2-7.2-12.2-12.8c0.3-4.2,2.2-7.3,5.6-9.1c4.6-2.4,7.5-4.7,8.8-6.7c3.7-6.2,7.1-19.5,10.1-40
		c2.6-18.2,3.8-36.6,3.7-55c0-6.5-2.4-10.4-7.1-11.9s-7.1-4.2-7.1-8.5c0-5.6,2.4-9.7,7.3-12.3c5.2-2.7,11.1-4.1,17-4h72.7
		c10.7,0,19.5,3.2,26.5,9.7c7.7,7.1,11.4,17,11.4,29.6c0,8.7-2.3,16.1-6.9,22.1c-5.1,4.8-10.1,9.6-15,14.4c0,1.9,1.9,4.3,5.6,7.3
		s6.1,5.6,7.2,8.1c1.1,2.8,1.7,5.7,1.9,8.7c0.2,3.3,0.4,6,0.5,8.2l1.8,19.8c0.5,5.4,3,9,7.8,11.3S1264,746.7,1264,749.8z
		 M1199.7,642.2c0-4.8-0.5-8.4-1.6-11c-1.4-3.5-4.9-5.7-8.6-5.5c-3.6,0-5.7,2.5-6.1,7.4l-3.3,32.4c-0.2,1.4,0.4,2.8,1.5,3.8
		c0.8,1,2,1.6,3.3,1.7c5.6,0,9.7-3.2,12.2-9.6C1198.7,656.6,1199.7,650.3,1199.7,642.2L1199.7,642.2z"/>
	<path class="st1" d="M1327.9,631.5c-1.8,12.7-8.2,26.2-19.2,40.8c-10.4,13.7-17.7,20-22,18.9c-2.5-0.5-4.7-1.9-6.1-4
		c-1.5-2.5-2.6-5.3-3.1-8.2c3.6-4.6,7.2-9.1,10.5-13.7s5.3-8.7,5.9-12c0.3-2-0.8-4.2-3.5-6.4c-6.4-5.4-9.7-11.6-9.7-18.7
		c0-1.3,0.1-2.6,0.2-3.9c0.5-6.7,3.4-13.1,8.1-17.9c4.5-4.8,10.7-7.5,17.3-7.4c7.7,0,13.3,2.5,17.2,7.5c3.4,4.6,5.1,10.6,5.1,18.1
		C1328.5,627.1,1328.3,629.3,1327.9,631.5z"/>
	<path class="st1" d="M1463.1,634.1c0,6.6-1.8,11.5-5.3,14.9c-3,3-7.1,4.5-12,4.5c-4,0-10.5-5.2-19.4-15.8c-4.3-5-8.6-7.5-13.2-7.5
		c-6.6,0-9.9,3-9.9,8.9s4.7,11.6,14.1,17.2c14.4,8.3,23.3,14.1,26.5,17.2c9.6,9.1,14.3,21.1,14.3,35.8c0,17.7-7.8,32.2-23.3,43.4
		c-13.4,10-29.7,15.4-46.5,15.3c-13.5,0-26.8-3.8-38.3-11.1c-13.2-8.1-19.8-17.8-19.8-29c0.1-3,0.6-6,1.5-8.9
		c2.2-7.2,4.1-12,5.5-14.3c2.6-4.6,6.1-7,10.6-7.3c5.9,0,11.5,7,16.9,20.8s12.3,20.8,20.7,20.8c3.7,0.1,7.3-1.2,10.2-3.5
		c2.9-2.3,4.6-5.9,4.4-9.7c0-4.9-4.3-10.6-12.7-17.2c-12.8-9.9-20.8-16.7-23.8-20.1c-8.4-9.2-13-21.2-12.9-33.6
		c-0.2-14.5,5.8-28.4,16.5-38.2c11-10.4,23.6-15.5,37.8-15.5c5.8,0,11.6,0.9,17.2,2.7c2.6,0.9,4.6,1.3,6,0.9
		c2.7-0.7,5.3-1.5,7.9-2.5c1.6-0.7,3.3-1.1,5-1.1c5.3,0,10.3,3.5,15.1,10.6C1460.7,618.4,1463,626.1,1463.1,634.1z"/>
</g>
<g>
	<path class="st0" d="M245.1,871.9c0,4-3.8,6.8-11.4,8.1c-4.6,0.9-11.9,1.3-21.9,1.3h-5.4c-1.9,0-3.7,0.1-5.6,0.3
		c-6.5,0-11.5-0.4-14.7-1.3c-4.4-1.2-6.5-3.3-6.5-6.5c0-1.7,1.9-3.3,5.8-5.2s5.8-3.4,5.8-4.9s-1-2.5-2.9-3.2
		c-2.1-0.7-4.3-1.1-6.5-1.1h-24.6c-2,0-4.1,0.5-5.8,1.5c-1.5,0.7-2.4,2.1-2.5,3.7c0,1.2,1.8,2.3,5.3,3.5s5.3,3,5.3,5.6
		c0,3.2-3.8,5.5-11.1,6.7c-7,0.9-14,1.3-21.1,1.2c-6.9,0-12.2-0.4-15.6-1.3c-5.3-1.4-7.9-3.9-7.9-7.6c0-2.1,1.4-3.6,4.3-4.8
		c4.4-1.7,6.7-2.5,6.9-2.7c2.9-2.2,7.8-7,14.9-14.8c7.3-8,14.2-16.4,20.7-25.2c7.4-9.9,11.9-17.6,13.6-23c1.4-4.5,3.6-7.6,6.8-9.4
		s7.6-2.5,13.8-2.5c9.2,0,16.5,2.3,22.1,7c4.3,3.6,7.6,9,9.9,16.1l14.9,44.3c0.5,1.7,1.2,3.4,2.1,5c0.5,1.2,1.3,2.2,2.4,2.9
		c2.8,0.9,4.9,1.5,6,1.9C243.9,868.1,245.1,869.9,245.1,871.9z M185.7,841.8c0-3.4-1.1-7.2-3.5-11.3s-4.2-6.3-5.6-6.3
		c-1.7,0-4.7,3.5-9.4,10.6c-2.6,3.9-3.9,6.7-3.9,8.3c0,0.5,0.4,0.9,1.3,1.2c1.3,0.4,2.6,0.5,4,0.5h6.8c2.6,0.1,5.1-0.1,7.6-0.6
		C184.7,843.8,185.7,843,185.7,841.8z"/>
	<path class="st0" d="M397.8,799c0,3.1-2.5,5.5-7.4,6.8s-7.8,3.4-8.3,6.2l-8.3,37.2c-2.4,10.6-7.8,18.6-16.4,24.1
		c-9.4,6.1-22.9,9.1-40.4,9.1c-18.6,0-32.5-2.6-41.6-7.9c-8.3-4.8-12.5-11.6-12.5-20.2c0.1-2.2,0.3-4.4,0.7-6.6l6.8-30.4
		c0.4-1.4,0.6-2.9,0.6-4.4c0-3.4-1.9-5.6-5.8-6.5s-5.8-2.7-5.8-5.5c0-3.5,4.4-6.1,13.2-7.7c6.8-1.3,15.3-1.9,25.7-1.9
		c9,0,15.8,0.4,20.4,1.3c7.2,1.4,10.8,3.8,10.8,7.5c0,3-2.5,5.4-7.4,7c-4.7,1.3-8.2,5.4-8.8,10.3l-5.5,34.2
		c-0.1,0.5-0.2,1.1-0.1,1.7c0,3.2,1.6,6.2,4.2,8.1c2.8,2.3,6.7,3.3,11.8,3.3c9.2,0,16.4-2.8,21.5-8.5c4.3-4.7,7.2-11.4,8.9-19.9
		c1.2-7.4,1.8-14.8,1.6-22.3v-2.3c0-2.9-2.4-5-7.1-6.2s-7.1-3.1-7.1-5.8c0-3.5,3-5.9,9.2-7.2c3.9-0.8,9.7-1.2,17.5-1.2
		c6.5-0.1,12.9,0.2,19.3,1.1C394.2,793.5,397.8,795.7,397.8,799z"/>
	<path class="st0" d="M519.9,811c0.1,3.5-1.4,6.9-4,9.3c-2.6,2.3-6.3,3.5-10.7,3.5s-8.3-2.7-11.7-7.9s-6-7.9-7.9-7.9
		c-1.3,0-2.6,0.6-3.5,1.6c-1,0.9-1.7,2.1-1.8,3.4l-6.3,43.2c-0.1,0.5-0.2,1-0.1,1.6v1.1c0,4.1,3.2,7.2,9.4,9.1
		c3,0.9,4.4,2.3,4.4,4.3c0,3.8-4.9,6.4-14.6,7.8c-9,1.1-18.2,1.5-27.3,1.4c-10.5,0-17.8-0.3-21.4-0.8c-8.5-1.2-12.8-3.5-12.8-7.2
		c0-0.5,0-1,0.1-1.5c0.6-2.2,2.5-3.5,5.8-4.3c6.9-1.7,11-5.3,12.1-10.8l8.3-44.7c0.2-1-0.1-2.1-0.7-2.9c-0.8-0.9-2-1.4-3.2-1.3
		c-2.1,0-5,2.5-8.6,7.6s-8.3,7.6-13.9,7.6c-3.2,0.1-6.4-0.7-9.2-2.5c-2.9-1.9-4.2-4.2-3.8-7.2c0-5.4,2.5-10.6,7.4-15.5
		s10.1-7.2,15.7-7.2c1.5,0,3,0.1,4.4,0.4c2.3,0.5,4.7,0.9,7.1,1.1h58.3c1.8-0.1,3.6-0.3,5.4-0.8s3.6-0.7,5.4-0.8
		c4.9,0,9.4,2.4,12.2,6.4C518.1,801.1,519.8,806,519.9,811z"/>
	<path class="st0" d="M650.7,825.3c0,15.6-7.5,29-22.6,40.3s-33.5,17-55.1,17c-17.1,0-30.4-3.6-40-10.9
		c-8.3-6.4-12.6-14.2-12.6-23.6c0-15.5,7.5-28.9,22.5-40.1s33.5-16.8,55.3-16.8c15,0,27.2,2.7,36.7,8.2
		C645.4,805.5,650.7,814.1,650.7,825.3z M603,823c0-5-0.4-8.4-1.1-10.3c-1.4-3.5-4.2-5.3-8.3-5.3c-7.4,0-13.5,4.8-18.7,14.5
		c-4.6,8.5-7,17.9-6.9,27.5c0,5.2,0.4,8.7,1.1,10.6c1.4,3.6,4.4,5.8,9.2,6.3c6.8,0.9,12.8-3.6,17.8-13.3
		C600.8,843.7,603.2,833.4,603,823z"/>
	<path class="st0" d="M818.1,800.7c0,2.3-1.7,4.1-5.1,5.2c-7.4,2.3-11.1,5.8-11.1,10.6l-4.2,40.5c0,5.4,2.4,9.2,6.9,11.5
		c2.2,1.2,3.3,2.5,3.3,3.9c0,4-4.3,6.8-12.9,8.1c-5.3,0.9-13.6,1.3-25,1.3c-6,0.1-12-0.3-17.9-1.2c-6.5-1.2-9.9-3.4-9.9-6.6
		c0-0.4,0-0.8,0.1-1.2c0.4-2.3,2.3-4.1,4.6-4.4c5.5-1.2,8.9-4.7,9.9-10.5l2.6-16.3c0.1-0.5,0.2-1.1,0.1-1.7c0-1.1-0.6-1.8-1.5-1.8
		c-1.4,0-2.8,0.6-3.6,1.8l-21,23.5c-1.7,2.2-3.8,4-6.1,5.6c-1.6,0.9-3.3,1.3-5.1,1.4c-0.6,0-1.4-0.1-2.5-0.2
		c-1.3-0.2-2.5-0.8-3.5-1.6c-1.2-0.9-2.1-2.1-2.6-3.5l-9.9-21.5c-0.4-1.1-0.8-2.3-1.3-3.5c-0.2-1.1-1.3-1.7-2.4-1.5h-0.1
		c-0.9,0.2-1.7,0.9-2.1,1.8c-0.6,1.3-1.1,2.6-1.5,3.9l-4.2,16.8c-0.1,1.3-0.3,2.1-0.3,2.5c0,2.2,1.4,4,4.3,5.5s4.3,3.1,4.3,4.9
		c0.3,2.5-1.9,4.4-6.9,5.7c-5.1,1.2-10.3,1.8-15.5,1.7h-2.6c-1.3-0.1-2.1-0.2-2.5-0.2c-6.9,0-11.7-0.3-14.3-0.9
		c-5-1.1-7.5-3.2-7.5-6.6c0-2.2,1.1-3.9,3.2-5.4c2.6-1.4,5.4-2.7,8-4c1.6-2.3,2.9-4.6,4-7.2c2.7-5.3,4.9-10.8,6.6-16.4
		c2.7-8.7,4.9-17.6,6.5-26.5c0.1-0.2,0.2-0.5,0.1-0.8v-0.8c0-2.7-2.2-4.6-6.8-5.9s-6.8-3-6.8-5.4c0-3.3,3.9-5.9,11.5-7.7
		c7.3-1.6,14.8-2.3,22.2-2.3c7.6,0,13.3,0.9,17.1,2.7c3.3,1.7,5.8,4.5,7.8,8.6l9,20c0.6,1.3,1.5,2.4,2.5,3.3
		c1.1,1.1,2.1,1.6,2.8,1.5c1.5-0.4,2.9-1.1,4-2.3c1.4-1.2,2.7-2.5,3.8-4l14.4-17.5c3.6-4.4,6.9-7.5,10.1-9c4.2-2.1,10.4-3,18.6-3
		s14.3,0.5,18.5,1.4C814.9,794.6,818.1,797.2,818.1,800.7z"/>
	<path class="st0" d="M951.3,825.3c0,15.6-7.5,29-22.6,40.3s-33.5,17-55.1,17c-17.1,0-30.4-3.6-40-10.9
		c-8.3-6.4-12.6-14.2-12.6-23.6c0-15.5,7.5-28.9,22.5-40.1s33.5-16.8,55.3-16.8c15,0,27.2,2.7,36.7,8.2
		C946,805.5,951.3,814.1,951.3,825.3z M903.7,823c0-5-0.4-8.4-1.1-10.3c-1.4-3.5-4.2-5.3-8.3-5.3c-7.4,0-13.6,4.8-18.7,14.5
		c-4.6,8.5-7,17.9-6.9,27.5c0,5.2,0.4,8.7,1.1,10.6c1.4,3.6,4.4,5.8,9.2,6.3c6.8,0.9,12.8-3.6,17.8-13.3
		C901.3,843.7,903.8,833.4,903.7,823z"/>
	<path class="st0" d="M1077.5,811c0.1,3.5-1.4,6.9-4,9.3c-2.6,2.3-6.3,3.5-10.7,3.5s-8.3-2.7-11.7-7.9s-6-7.9-7.9-7.9
		c-1.3,0-2.6,0.6-3.5,1.6c-1,0.9-1.7,2.1-1.8,3.4l-6.3,43.2c-0.1,0.5-0.2,1-0.1,1.6v1.1c0,4.1,3.2,7.2,9.4,9.1
		c3.1,0.9,4.4,2.3,4.4,4.3c0,3.8-4.9,6.4-14.6,7.8c-9,1-18.1,1.5-27.2,1.4c-10.5,0-17.8-0.3-21.4-0.8c-8.5-1.2-12.8-3.5-12.8-7.2
		c0-0.5,0-1,0.1-1.5c0.6-2.2,2.5-3.5,5.8-4.3c6.9-1.7,11-5.3,12.1-10.8l8.3-44.7c0.2-1-0.1-2.1-0.7-2.9c-0.8-0.9-2-1.4-3.2-1.3
		c-2.1,0-5,2.5-8.6,7.6s-8.3,7.6-13.9,7.6c-3.2,0.1-6.4-0.7-9.2-2.5c-2.9-1.9-4.2-4.2-3.8-7.2c0-5.4,2.5-10.6,7.4-15.5
		s10.1-7.3,15.6-7.3c1.5,0,3,0.1,4.4,0.4c2.3,0.5,4.7,0.9,7.1,1.1h58.3c1.8-0.1,3.6-0.3,5.4-0.8s3.6-0.7,5.4-0.8
		c4.9,0,9.4,2.4,12.2,6.4C1075.7,801.1,1077.5,806,1077.5,811z"/>
	<path class="st0" d="M1164,799.4c0,2.7-2.6,4.5-7.8,5.6s-8.1,3.3-8.8,6.9l-9.2,45.3c-0.1,0.5-0.1,1-0.3,1.6s-0.1,1-0.1,1.3
		c0,3.2,2.1,5.6,6.3,7s6.3,3.2,6.3,5.5c0,3.8-3.8,6.4-11.4,7.8c-7.1,1-14.3,1.5-21.5,1.4c-13.3,0-22.1-0.3-26.5-0.9
		c-9.2-1.2-13.8-3.8-13.8-7.9v-1c0.3-2.3,2.1-3.9,5.4-4.9c7.4-2.1,11.4-6.1,12.5-12l7.8-43.8c0.1-0.6,0.2-1.2,0.1-1.8
		c0-2.5-2.1-4.1-6.3-4.9s-6.3-2.7-6.3-5.5c0-3.6,4.9-6,14.4-7c7.8-0.7,15.5-1,23.3-0.9c11.3,0,18.9,0.3,23,0.9
		C1159.8,793.3,1164,795.7,1164,799.4z"/>
	<path class="st0" d="M1301,798.8c0.1,2.1-1,4.1-2.9,5c-1.8,0.8-3.6,1.3-5.6,1.6c-2.2,0.3-4.3,1.2-6,2.7c-0.4,0.4-1.4,1.8-3.2,4.1
		l-39.3,55.6c-2.3,3.6-5.1,6.9-8.2,9.9c-3.5,3.1-8,4.8-12.6,4.8h-1.9c-4.5-0.2-8.9-2.1-12.1-5.3c-2.7-2.9-4.8-6.4-6.1-10.2l-20-52.1
		c-0.5-1.4-1.1-2.7-1.9-3.9c-1.2-1.4-2.8-2.5-4.6-3.1c-1.8-0.6-3.6-1.3-5.4-2.1c-1.7-0.8-2.4-2.3-2.4-4.4c0-3.7,4.4-6.4,13.5-7.9
		c6.5-1.2,15-1.7,25.4-1.7c9,0,15.4,0.3,18.9,1c6.5,1.2,9.9,3.6,9.9,7.5c0,2.7-1.8,4.5-5.6,5.7s-5.6,2.7-5.3,4.4
		c0,3.6,1.7,9.9,4.9,18.5s5.7,13,7.4,13c1.9,0,5.7-4.5,11.3-13.5c5.6-9,8.3-15.7,8.3-19.9c0-1.2-1.3-2.7-3.6-4.5s-3.6-3.4-3.6-4.7
		c0-2.3,1.8-4.1,5.3-5.3c4-1.4,11-2.2,20.7-2.2c8.1,0,13.5,0.3,16.4,0.8C1298.3,793.4,1301,795.5,1301,798.8z"/>
	<path class="st0" d="M1409.8,809.4c0.1,2.6-0.8,5.1-2.6,7c-2.1,2.2-5.1,3.1-9.2,3.1s-7.6-2.1-10.3-6.3s-8.8-6.3-18.2-6.3
		c-3.3,0-6.7,0.4-9.9,1.3c-2.6,0.9-4.2,2.5-4.4,4.6l-1.7,14.1c0,1.2,1.5,1.8,4.4,1.8s5.3-2.1,7.2-6.1s4.6-6.1,7.9-6.1
		c4.4,0,7.8,1.9,9.7,5.6c1.6,3.3,2.5,7,2.4,10.8c0,6.4-1.1,11.6-3.2,15.5c-2.8,5.2-7.5,7.8-13.9,7.8c-4.2,0-6.4-2.2-7.1-6.6
		s-2.6-6.6-6-6.6c-1.7,0-2.9,0.9-4,2.5c-1,1.6-1.6,3.5-1.5,5.5v11.1c0,1.7,0.6,2.8,1.8,3.3s4,0.9,8.3,0.9c11.5,0,19.7-2.7,24.8-8.2
		s9.6-8.2,13.6-8.2c2.7-0.1,5.4,0.9,7.4,2.8c1.8,1.9,2.8,4.4,2.8,7c0,5.3-2,10.3-5.6,14.2c-3.3,4-7.9,6.8-13.1,7.7
		c-1.4,0.1-2.4,0.2-2.9,0.2c-1.2,0-2.4-0.1-3.6-0.4c-2.2-0.4-4.3-0.7-6.5-0.8h-51.9c-2.1,0-5,0.2-8.6,0.5c-8.1,0.7-12.9,1-14.9,1
		c-3.1,0.1-6.2-0.3-9.2-1.4c-2.3-1-3.9-3.1-4.3-5.6c0-2.2,1.3-4,3.8-5.6c2.9-1.4,5.8-2.7,8.9-4.1c3.5-4.7,6.4-12,8.8-21.8
		c2.4-10,3.5-20.3,3.5-30.6c0-2.8-1.8-5.1-5.6-6.6s-5.6-3.5-5.6-6.1s1.7-4.8,5-6.4c3.8-1.7,8-2.5,12.2-2.3c3.1,0,5.3,0.1,6.9,0.2
		s2.5,0.2,2.9,0.2h51.9c2.9,0,5.8-0.2,8.6-0.6c3.5-0.4,5.7-0.6,6.4-0.6c3.3,0,6.5,1.9,9.7,5.5
		C1408.2,800.3,1409.8,804.8,1409.8,809.4z"/>
</g>
<g>
	<path class="st1" d="M243.1,866.4c0,4.1-3.8,6.9-11.4,8.3c-4.6,0.9-11.9,1.3-21.9,1.3h-5.4c-1.9,0-3.7,0.1-5.6,0.3
		c-6.5,0-11.5-0.4-14.7-1.3c-4.4-1.2-6.5-3.4-6.5-6.6c0-1.7,1.9-3.4,5.8-5.3s5.8-3.5,5.8-5s-1-2.5-2.9-3.3c-2.1-0.7-4.3-1.1-6.5-1.1
		h-24.6c-2,0-4.1,0.5-5.8,1.5c-1.5,0.7-2.4,2.2-2.5,3.8c0,1.2,1.8,2.4,5.3,3.6s5.3,3.1,5.3,5.7c0,3.3-3.8,5.6-11.1,6.8
		c-4.9,0.8-11.8,1.2-21.1,1.2c-6.9,0-12.2-0.4-15.6-1.3c-5.3-1.4-7.9-4-7.9-7.8c0-2.1,1.4-3.7,4.3-4.9c4.4-1.7,6.7-2.6,6.9-2.8
		c2.9-2.2,7.8-7.2,14.9-15.1c7.3-8.2,14.2-16.8,20.7-25.8c7.4-10.1,11.9-18,13.6-23.6c1.4-4.6,3.6-7.8,6.8-9.6s7.6-2.6,13.8-2.6
		c9.2,0,16.5,2.4,22.1,7.1c4.3,3.7,7.6,9.2,9.9,16.4l14.9,45.3c0.5,1.8,1.2,3.5,2.1,5.1c0.5,1.2,1.3,2.2,2.4,3
		c2.8,0.9,4.9,1.5,6,1.9C241.9,862.5,243.1,864.3,243.1,866.4z M183.7,835.5c-0.1-4.1-1.3-8-3.5-11.5c-2.4-4.2-4.2-6.4-5.6-6.4
		c-1.7,0-4.7,3.6-9.4,10.8c-2.6,4-3.9,6.8-3.9,8.5c0,0.5,0.4,0.9,1.3,1.2c1.3,0.4,2.6,0.6,4,0.5h6.8c2.6,0.1,5.1-0.2,7.6-0.6
		C182.7,837.6,183.7,836.8,183.7,835.5z"/>
	<path class="st1" d="M395.8,791.7c0,3.2-2.5,5.6-7.4,6.9s-7.8,3.5-8.3,6.3l-8.3,38c-2.4,10.8-7.8,19-16.4,24.7
		c-9.4,6.2-22.9,9.3-40.4,9.3c-18.6,0-32.5-2.7-41.6-8.1c-8.3-4.9-12.5-11.8-12.5-20.7c0.1-2.3,0.3-4.5,0.7-6.7l6.8-31.1
		c0.4-1.5,0.6-3,0.6-4.5c0-3.5-1.9-5.7-5.8-6.6c-3.9-0.9-5.8-2.7-5.8-5.6c0-3.6,4.4-6.2,13.2-7.9c6.8-1.3,15.3-1.9,25.7-1.9
		c9,0,15.8,0.4,20.4,1.3c7.2,1.4,10.8,3.9,10.8,7.6c0,3.1-2.5,5.5-7.4,7.2c-4.8,1.4-8.2,5.6-8.8,10.5l-5.5,35
		c-0.1,0.6-0.2,1.1-0.1,1.7c0,3.3,1.6,6.3,4.2,8.3c2.8,2.3,6.7,3.4,11.8,3.4c9.2,0,16.4-2.9,21.5-8.7c4.3-4.8,7.2-11.6,8.9-20.3
		c1.2-7.5,1.8-15.1,1.7-22.8v-2.4c0-3-2.4-5.1-7.1-6.3s-7.1-3.2-7.1-5.9c0-3.6,3-6,9.2-7.3c3.9-0.8,9.7-1.2,17.5-1.2
		c6.5-0.1,12.9,0.2,19.3,1.1C392.2,786.1,395.8,788.4,395.8,791.7z"/>
	<path class="st1" d="M517.9,804c0.1,3.6-1.3,7.1-4,9.5c-2.6,2.4-6.3,3.6-10.7,3.6s-8.3-2.7-11.7-8.1s-6-8.1-7.9-8.1
		c-1.3,0-2.6,0.6-3.5,1.6c-1,0.9-1.7,2.2-1.8,3.5l-6.3,44.2c-0.1,0.5-0.2,1.1-0.1,1.6v1.2c0,4.2,3.2,7.3,9.4,9.3
		c3,0.9,4.4,2.4,4.4,4.4c0,3.9-4.9,6.5-14.6,8c-6.3,0.9-15.4,1.4-27.2,1.4c-10.5,0-17.8-0.3-21.4-0.8c-8.5-1.2-12.8-3.6-12.8-7.3
		c0-0.5,0-1,0.1-1.5c0.6-2.2,2.5-3.6,5.8-4.4c6.9-1.7,11-5.4,12.1-11l8.3-45.7c0.2-1.1-0.1-2.1-0.7-3c-0.8-0.9-2-1.4-3.2-1.3
		c-2.1,0-5,2.6-8.6,7.8s-8.3,7.8-13.9,7.8c-3.2,0.1-6.4-0.8-9.2-2.5c-2.9-1.9-4.2-4.3-3.8-7.3c0-5.5,2.5-10.8,7.4-15.8
		s10.1-7.4,15.7-7.4c1.5,0,3,0.1,4.4,0.4c2.3,0.5,4.7,0.9,7.1,1.1h58.3c1.8-0.1,3.6-0.3,5.4-0.8s3.6-0.7,5.4-0.8
		c4.9,0,9,2.2,12.2,6.5C516.1,794,517.8,798.9,517.9,804z"/>
	<path class="st1" d="M648.7,818.7c0,15.9-7.5,29.7-22.6,41.2s-33.5,17.3-55.1,17.3c-17.1,0-30.4-3.7-40-11.1
		c-8.3-6.5-12.6-14.5-12.6-24.2c0-15.8,7.5-29.6,22.5-41s33.5-17.2,55.3-17.2c15,0,27.2,2.8,36.7,8.4
		C643.4,798.4,648.7,807.3,648.7,818.7z M601.1,816.4c0-5.1-0.4-8.6-1.1-10.5c-1.4-3.6-4.2-5.4-8.3-5.4c-7.4,0-13.5,4.9-18.7,14.8
		c-4.6,8.7-7,18.4-6.9,28.2c0,5.3,0.4,8.9,1.1,10.8c1.4,3.7,4.4,5.9,9.2,6.4C583,861.6,589,857,594,847
		C598.7,837.5,601.2,827,601.1,816.4L601.1,816.4z"/>
	<path class="st1" d="M816.1,793.5c0,2.4-1.7,4.2-5.1,5.3c-7.4,2.3-11.1,5.9-11.1,10.8l-4.2,41.5c0,5.5,2.4,9.4,6.9,11.7
		c2.2,1.2,3.3,2.5,3.3,4c0,4.1-4.3,6.9-12.9,8.3c-5.3,0.9-13.6,1.3-25,1.3c-6,0.1-12-0.3-17.9-1.2c-6.5-1.2-9.9-3.5-9.9-6.7
		c0-0.4,0-0.8,0.1-1.2c0.4-2.3,2.3-4.1,4.6-4.5c5.5-1.2,8.9-4.8,9.9-10.7l2.6-16.6c0.1-0.6,0.2-1.1,0.1-1.7c0-1.1-0.6-1.8-1.5-1.8
		c-1.4,0-2.8,0.6-3.6,1.8l-21,24.1c-1.7,2.2-3.8,4.1-6.1,5.7c-1.6,0.9-3.3,1.4-5.1,1.4c-0.6,0-1.4-0.1-2.5-0.2
		c-1.3-0.2-2.5-0.8-3.5-1.6c-1.2-0.9-2.2-2.2-2.6-3.6l-9.9-22c-0.4-1.1-0.8-2.3-1.3-3.6c-0.2-1.1-1.3-1.8-2.4-1.5h-0.1
		c-1,0.2-1.7,0.9-2.1,1.8c-0.6,1.3-1.1,2.6-1.5,4l-4.2,17.2c-0.1,1.3-0.3,2.1-0.3,2.5c0,2.2,1.4,4.1,4.3,5.6s4.3,3.2,4.3,5
		c0.3,2.5-1.9,4.5-6.9,5.8c-5.1,1.3-10.3,1.8-15.5,1.7h-2.6c-1.3-0.1-2.1-0.2-2.5-0.2c-6.9,0-11.7-0.3-14.3-0.9
		c-5-1.1-7.5-3.3-7.5-6.7c0.1-2.3,1.3-4.3,3.2-5.5c2.6-1.4,5.4-2.7,8-4.1c1.6-2.3,2.9-4.8,4-7.3c2.7-5.4,4.9-11,6.6-16.8
		c2.7-8.9,4.9-18,6.5-27.2c0.1-0.3,0.2-0.5,0.1-0.8v-0.8c0-2.7-2.2-4.7-6.8-6s-6.8-3.1-6.8-5.5c0-3.4,3.9-6,11.5-7.9
		c7.3-1.6,14.7-2.4,22.2-2.3c7.6,0,13.3,0.9,17.1,2.8c3.3,1.7,5.8,4.6,7.8,8.8l9,20.5c0.6,1.3,1.5,2.4,2.5,3.4
		c1.1,1.1,2.1,1.6,2.8,1.5c1.5-0.4,2.9-1.2,4-2.3c1.4-1.2,2.7-2.6,3.8-4.1l14.4-18c3.6-4.5,6.9-7.6,10.1-9.2
		c4.2-2.1,10.4-3.1,18.6-3.1s14.3,0.5,18.5,1.4C812.9,787.3,816.1,789.9,816.1,793.5z"/>
	<path class="st1" d="M949.3,818.7c0,15.9-7.5,29.7-22.6,41.2s-33.5,17.3-55.1,17.3c-17.1,0-30.4-3.7-40-11.1
		c-8.3-6.5-12.6-14.5-12.6-24.2c0-15.8,7.5-29.6,22.5-41s33.5-17.2,55.3-17.2c15,0,27.2,2.8,36.7,8.4
		C944,798.4,949.3,807.3,949.3,818.7z M901.7,816.4c0-5.1-0.4-8.6-1.1-10.5c-1.4-3.6-4.2-5.4-8.3-5.4c-7.4,0-13.6,4.9-18.7,14.8
		c-4.6,8.7-7,18.4-6.9,28.2c0,5.3,0.4,8.9,1.1,10.8c1.4,3.7,4.4,5.9,9.2,6.4c6.8,0.9,12.8-3.7,17.8-13.6
		C899.3,837.5,901.8,827,901.7,816.4L901.7,816.4z"/>
	<path class="st1" d="M1075.5,804c0.1,3.6-1.3,7.1-4,9.5c-2.6,2.4-6.3,3.6-10.7,3.6s-8.3-2.7-11.7-8.1s-6-8.1-7.9-8.1
		c-1.3,0-2.6,0.6-3.5,1.6c-1,0.9-1.7,2.2-1.8,3.5l-6.3,44.2c-0.1,0.5-0.2,1.1-0.1,1.6v1.2c0,4.2,3.2,7.3,9.4,9.3
		c3.1,0.9,4.4,2.4,4.4,4.4c0,3.9-4.9,6.5-14.6,8c-6.3,0.9-15.4,1.4-27.2,1.4c-10.5,0-17.8-0.3-21.4-0.8c-8.5-1.2-12.8-3.6-12.8-7.3
		c0-0.5,0-1,0.1-1.5c0.6-2.2,2.5-3.6,5.8-4.4c6.9-1.7,11-5.4,12.1-11l8.3-45.7c0.2-1.1-0.1-2.1-0.7-3c-0.8-1-2-1.5-3.2-1.4
		c-2.1,0-5,2.6-8.6,7.8s-8.3,7.8-13.9,7.8c-3.2,0.1-6.4-0.8-9.2-2.5c-2.9-1.9-4.2-4.3-3.8-7.3c0-5.5,2.5-10.8,7.4-15.8
		s10.1-7.4,15.7-7.4c1.5,0,3,0.1,4.4,0.4c2.3,0.5,4.7,0.9,7.1,1.1h58.3c1.8-0.1,3.6-0.3,5.4-0.8s3.6-0.7,5.4-0.8
		c4.9,0,9,2.2,12.2,6.5C1073.7,794,1075.5,798.9,1075.5,804z"/>
	<path class="st1" d="M1162,792.2c0,2.7-2.6,4.6-7.8,5.7s-8.1,3.4-8.8,7l-9.2,46.3c-0.1,0.5-0.1,1-0.3,1.6s-0.1,1-0.1,1.3
		c0,3.3,2.1,5.7,6.3,7.1s6.3,3.3,6.3,5.6c0,3.9-3.8,6.5-11.4,8c-7.1,1.1-14.3,1.5-21.5,1.4c-13.3,0-22.1-0.3-26.5-0.9
		c-9.2-1.2-13.8-3.9-13.8-8.1v-0.9c0.3-2.4,2.1-4,5.4-5c7.4-2.1,11.4-6.2,12.5-12.2l7.8-44.8c0.1-0.6,0.2-1.2,0.1-1.8
		c0-2.5-2.1-4.2-6.3-5s-6.3-2.7-6.3-5.6c0-3.7,4.9-6.1,14.4-7.2c7.8-0.7,15.5-1,23.3-0.9c11.3,0,18.9,0.3,23,0.9
		C1157.8,785.9,1162,788.4,1162,792.2z"/>
	<path class="st1" d="M1299,791.6c0.1,2.1-1,4.1-2.9,5.1c-1.8,0.8-3.6,1.4-5.6,1.6c-2.2,0.3-4.3,1.2-6,2.7c-0.4,0.4-1.4,1.8-3.2,4.2
		L1242,862c-2.3,3.7-5.1,7.1-8.2,10.1c-3.5,3.1-8,4.9-12.6,4.9h-1.9c-4.6-0.2-8.9-2.1-12.1-5.4c-2.8-3-4.8-6.6-6.1-10.4l-20-53.3
		c-0.5-1.4-1.1-2.8-1.9-4c-1.2-1.5-2.8-2.6-4.6-3.2c-1.8-0.6-3.6-1.3-5.4-2.1c-1.7-0.8-2.4-2.3-2.4-4.5c0-3.8,4.4-6.5,13.5-8.1
		c6.5-1.2,15-1.7,25.4-1.7c9,0,15.4,0.3,18.9,1c6.5,1.2,9.9,3.7,9.9,7.6c0,2.7-1.8,4.6-5.6,5.8s-5.6,2.7-5.3,4.5
		c0,3.7,1.7,10.1,4.9,19s5.7,13.3,7.4,13.3c1.9,0,5.7-4.6,11.3-13.8c5.6-9.2,8.3-16,8.3-20.3c0-1.2-1.3-2.8-3.6-4.6
		s-3.6-3.5-3.6-4.8c0-2.4,1.8-4.2,5.3-5.4c4-1.4,11-2.2,20.7-2.2c8.1,0,13.5,0.3,16.4,0.8C1296.3,786,1299,788.2,1299,791.6z"/>
	<path class="st1" d="M1407.8,802.4c0.1,2.6-0.8,5.2-2.6,7.1c-2.1,2.2-5.1,3.2-9.2,3.2s-7.6-2.1-10.3-6.4s-8.8-6.4-18.2-6.4
		c-3.3,0-6.7,0.4-9.9,1.3c-2.6,0.9-4.2,2.5-4.4,4.7l-1.7,14.4c0,1.2,1.5,1.8,4.4,1.8s5.3-2.1,7.2-6.2s4.6-6.2,7.9-6.2
		c4.4,0,7.8,1.9,9.7,5.7c1.6,3.4,2.5,7.2,2.4,11c0,6.5-1.1,11.8-3.2,15.8c-2.8,5.3-7.5,8-13.9,8c-4.2,0-6.4-2.2-7.1-6.7
		s-2.6-6.7-6-6.7c-1.7,0-2.9,0.9-4,2.6c-1,1.7-1.6,3.6-1.5,5.6v11.3c0,1.7,0.6,2.9,1.8,3.4s4,0.9,8.3,0.9c11.5,0,19.7-2.8,24.8-8.4
		s9.6-8.4,13.6-8.4c2.8-0.1,5.4,0.9,7.4,2.9c1.8,1.9,2.8,4.5,2.8,7.1c-0.3,10.9-8,20.1-18.6,22.5c-1.4,0.1-2.4,0.2-2.9,0.2
		c-1.2,0-2.4-0.1-3.6-0.4c-2.2-0.4-4.3-0.7-6.5-0.8h-51.9c-2.1,0-5,0.2-8.6,0.5c-8.1,0.7-12.9,1-14.9,1c-3.1,0.1-6.2-0.3-9.2-1.4
		c-2.3-1-4-3.2-4.3-5.7c0-2.2,1.3-4.1,3.8-5.7c2.9-1.4,5.8-2.8,8.9-4.2c3.5-4.8,6.4-12.2,8.8-22.3c2.4-10.3,3.5-20.8,3.5-31.3
		c0-2.9-1.8-5.2-5.6-6.7s-5.6-3.6-5.6-6.2s1.7-4.9,5-6.5c3.8-1.7,8-2.5,12.2-2.4c3.1,0,5.3,0.1,6.9,0.2s2.5,0.2,2.9,0.2h51.9
		c2.9,0,5.8-0.2,8.6-0.6c3.5-0.4,5.7-0.6,6.4-0.6c3.3,0,6.5,1.9,9.7,5.6C1406.2,792.9,1407.9,797.6,1407.8,802.4z"/>
</g>
</svg>
